<svg xmlns="http://www.w3.org/2000/svg" viewBox="0 0 400 24.4"><path d="M209.8.4c-.2.4-1 2.6-2.1 5.7-.4 1.2-2 5.7-3.5 10-3 8.5-2.9 8.3-2.4 8.3s.1 1.2 4.7-12.8c2.9-8.7 3.8-11.4 3.6-11.5 0-.1-.2.1-.3.3M1.7 1.5C.3 2.6-.8 3.9.3 3.1 1 2.6 3.9.2 3.9.2c-.1-.3-.9.2-2.2 1.3m1.4 1C.4 4.5-.3 5.2.1 5.2.2 5.2 6.7.5 6.8.3c.3-.6-1 .2-3.7 2.2m5.1-1.3c-.8.5-3 2-4.8 3.2S.1 6.6 0 6.6v.2c0 .1 1-.4 2.1-1.1s3.5-2.2 5.3-3.3S10.6.3 10.6.3c.1-.4-1.1.1-2.4.9m3.3.5c-1.4.8-3.3 1.9-4.2 2.5s-2.5 1.4-3.5 2C2.7 6.7 1.5 7.4 1 7.7c-.8.5-1.1.7-1 .9l2.2-1.1C3.5 6.8 6.8 5 9.7 3.4 15.5.2 15.5.2 14.7.2c-.4 0-1.4.4-3.2 1.5M9.8 5C4.4 7.7 0 10 0 10c0 .2.5 0 3.2-1.3C4.6 8.1 9.1 6 13.2 4 21.3.1 21.2.2 20.3.2 19.7.2 17.4 1.3 9.8 5m14.7-3.9c-1.1.5-3.5 1.5-5.3 2.3S15.5 4.9 15 5.2c-.5.2-2.1.9-3.6 1.5-1.5.5-3.7 1.4-4.9 2-1.2.5-3.2 1.3-4.4 1.8-1.9.8-2.5 1.2-2 1.2.1 0 2.6-1 7-2.8.8-.3 3.1-1.3 5.2-2.1 2.1-.9 4.7-1.9 5.8-2.3 1.1-.5 3.7-1.6 5.9-2.4C28.7.2 28.7.2 27.5.2c-.7 0-1.3.2-3 .9m-6.7 5.4C8.1 10 .1 12.9 0 13c-.1.2 0 .2.2.1s2.9-1 6.1-2.1 7.5-2.5 9.6-3.2 7.9-2.7 12.9-4.3C33.8 1.8 38 .4 38 .3c0 0-.5-.1-1.2-.1-1.2 0-1.6.1-19 6.3m28.9-6c0 .2-.2.4-.7.5-.4.1-2.2.6-4 1.1s-5.7 1.7-8.7 2.5c-3 .9-7.1 2.1-9.2 2.7s-4.3 1.2-4.9 1.4-3.6 1-6.7 1.9-7.1 2.1-9 2.6-3.4 1-3.5 1.1c-.3.3.2.2 1.1-.1.6-.2 2.2-.6 3.7-1 1.4-.4 3.2-.9 4-1.1 2.4-.7 9-2.5 12.2-3.3.8-.2 2.7-.7 4.2-1.2s3.8-1 4.9-1.3 3.1-.8 4.2-1.2c1.2-.3 3.3-.9 4.6-1.3s3.6-1 5.1-1.4c3.1-.8 2.8-.9 3.2.8.3 1.5.3 1.5-.8 1.7-1.1.3-11.4 2.6-14.6 3.3-1.4.3-3.4.8-4.4 1s-3.3.8-5.2 1.2c-3.4.8-5.2 1.2-9.2 2.1-1.2.3-2.9.6-3.8.8s-2.3.5-3.2.8c-.9.2-2.6.6-3.8.9-1.1.3-2.2.5-2.2.6-.3.2.3.2 2.6-.4 1.2-.3 2.6-.5 3-.6l.8-.1-.8.5c-.5.3-1.9 1.1-3.2 1.9-2 1.2-2.3 1.4-2.4 1.8-.1.6-.1.6 5.2-2.5l1.4-.8c.1 0 1.5 2.3 1.5 2.5 0 .1-1.8 1-4.1 2.2-3.7 2-4 2.2-4 2.6v.5l1.1-.5c.6-.3 2.5-1.2 4.3-2.1 3.6-1.8 3.4-1.7 4.2-.3.8 1.4.9 1.3-1.3 2.2-1 .4-2.4 1-3 1.3l-1.2.5h1.1c.8 0 1.3-.1 2-.4 3.8-1.7 3.7-1.6 4.1-.7.4.8.7 1.1 1.2 1.1.6 0 .6-.1-1.7-4-3.3-5.8-3.4-6-3.3-6.1s3.4-.8 3.5-.7c0 0 1.2 2.4 2.7 5.2 2.9 5.8 2.8 5.6 3.4 5.6s.6.2-2.2-5.5c-2.7-5.5-2.8-5.6-2.3-5.7 1.1-.3 2.9-.6 3.1-.5.1.1.5.9 2 4.4.4.9 1.2 2.7 1.8 4 .6 1.3 1.1 2.5 1.2 2.8.1.4.3.5.7.5.6 0 .7.5-1.1-3.9-4-9.5-3.8-8.2-1.3-8.6 1.6-.3 1.4-.4 2.1 1.6.8 2.2 2.1 5.7 2.5 6.8.2.5.6 1.6 1 2.5.6 1.5.7 1.7 1.1 1.7.5.1.5.1.1-1-.2-.5-.8-2.2-1.3-3.7-.5-1.6-1.4-4-1.9-5.5-1.1-3-1.1-2.8.6-3.2.7-.1 1.4-.3 1.6-.3.3-.1.4.1.8 1.4.5 1.6 1.7 5.8 2.9 9.7.8 2.5.8 2.6 1.2 2.6.4 0 .5 0 .4-.2 0-.2-.3-1.1-.6-2.1-1.1-3.9-2.2-7.8-2.6-9.2-.2-.8-.5-1.6-.6-1.9s-.1-.5-.1-.6c.1-.1 2.6-.7 3-.7.3 0 .2-.5 3.1 11.6.7 2.9.7 3 1.2 3.1.2 0 .5 0 .5-.1 0-.2-1.8-8.1-2.8-12.5-.6-2.5-.6-2.4 1.2-2.8 1.8-.4 1.7-.5 2 1.7.2 1 .6 3.6 1 5.7.4 2.2.8 4.8 1 5.8.3 2.1.4 2.2.9 2.2.4 0 .4.1-.2-3.6-.2-1.1-.6-3.9-1-6.2s-.7-4.6-.8-5.1c-.1-.8-.1-.9.2-1 .4-.2 2.8-.6 2.9-.6.1.1.2.8 1.6 13.5.3 2.7.4 3.2.9 3 .2-.1.2-.3.2-.7 0-.3-.3-3.4-.7-6.7-.3-3.3-.7-6.6-.7-7.3-.3-2.2-.4-2.1 1.2-2.4 2.1-.4 1.9-.5 2 1.1.1 2.1.6 9.8.7 12 .1 1.1.1 2.5.2 3l.1 1h.6c.6 0 2.7-.5 5.6-1.4.7-.2 1.3-.4 1.4-.4s.1.3.2.6c.2.9.4 1.2.7 1.2.4 0 .4-.1-.3-3-.3-1.4-.8-3.4-1-4.4s-.6-2.7-.8-3.7c-.5-2-1.5-6.6-2.3-10.1-.3-1.2-.5-2.4-.6-2.6-.3-.5-.7-.6-.7-.1M49 .3c0 .2.9 3.5 1.8 6.7.3 1.2 1.5 5.5 2.6 9.7 2 7.4 2.1 7.6 2.5 7.6.6.1.7.5-1.3-6.4-1-3.4-2.3-8.1-3-10.5-.7-2.4-1.4-4.8-1.6-5.3S49.6.9 49.6.6C49.5.2 49 0 49 .3m2.4.2c.1.2 1.3 3.7 2.7 7.9 5.8 17.2 5.3 15.9 5.8 16 .6.1.5-.3-2.4-8.4-.3-.7-.7-2-1-2.8-.9-2.5-1.5-4.2-3.3-9.5C52.2.9 51.9.2 51.7.2c-.3 0-.4 0-.3.3M54 .3c0 .2.4 1.3 2.7 6.9 1.2 2.9 3.1 7.6 5 12.3 2.1 5.1 1.9 4.8 2.5 4.8.3 0 .5-.1.4-.2 0-.1-.5-1.2-1-2.4s-1.5-3.6-2.3-5.4-1.5-3.7-1.8-4.2c-.8-1.8-2.4-5.6-3-7.1-.3-.8-.7-1.7-.8-1.9s-.4-1-.7-1.7c-.4-1-1-1.7-1-1.1m2.8.3c.1.3.7 1.4 1.2 2.6 1 2.1 4.1 8.5 5.7 11.9 4.2 9 4.3 9.2 4.9 9.2.7.1 1 .9-2.9-7.2C57.6.7 57.3.1 57 .1c-.3.1-.3.1-.2.5m2.9-.3c0 .1 1.3 2.5 2.9 5.4s4 7.3 5.4 9.9c4.9 9 4.7 8.7 5.3 8.7.6.1.7-.2.2-1-.2-.3-.8-1.4-1.4-2.4-2.3-4.1-7.6-13.4-9.2-16.1-.5-.8-1.1-1.9-1.5-2.6-1-1.8-1.7-2.6-1.7-1.9m3 .1c0 .1.5.9 1 1.6 1.6 2.4 2.8 4.4 10.9 17.1 3.6 5.7 3.2 5.2 3.9 5.2.7 0 .8.2-1.6-3.4-3.1-4.8-6.4-9.8-8.9-13.6-4.6-7-4.7-7.2-5-7.2-.3.1-.3.1-.3.3m3.5.3c.8 1.1 10.5 14.7 11.2 15.5.3.4 1.7 2.3 3.1 4.3 2.6 3.6 2.6 3.7 3.3 3.7.8.1.9.1-2-3.7-1.3-1.8-3-4.1-3.8-5.1-.8-1.1-2.3-3.1-3.4-4.6s-3.3-4.5-5-6.7c-2.5-3.4-3-4-3.4-4h-.4l.4.6m3.3-.3c.1.1 1 1.2 2 2.5C72.5 4.1 74 6 74.8 7c1.8 2.2 8.3 10.3 11.2 13.8 1.1 1.4 2.1 2.8 2.2 3.1.2.5.2.6 1.1.6 1.1 0 1 0 9.5-3.6 1.2-.5 2.7-1.1 3.2-1.4 2.4-1 6.4-2.7 10.3-4.3 1.2-.5 3.3-1.4 4.5-1.9s2.4-1 2.7-1.2c.7-.3.7-.3 1.1 1.4s.5 1.6-.9 2.1c-1.8.6-7.9 2.9-13.7 5-1.9.7-6.8 2.5-8.8 3.2l-1.1.4.9.1c.6 0 1.2-.1 1.8-.3 1-.3 3.6-1.3 9.4-3.3 1.8-.6 4.5-1.6 5.8-2 1.4-.5 3.3-1.2 4.2-1.5 2.6-1 2.8-1 3-.2.5 2 .7 2.6.5 2.6-.1 0-.5.2-.9.3-.4.1-1 .3-1.3.4-1.3.3-12.9 3.9-13 4-.4.4 2.9 0 5.2-.7 1.5-.4 3.3-.9 4.1-1.2.8-.2 2.5-.7 3.8-1.1s2.4-.7 2.5-.7c.2 0 1 3.1.8 3.3-.1.1-.3.2-.5.2s.1.1.5.1c.6 0 .9 0 .9-.2s-.6-2.7-3-12.9c-1.2-5.1-1.2-4.7.4-5.1s1.5-.5 1.9 2c.2 1.1.5 2.9.8 4.1.2 1.1.7 3.5 1 5.3 1 5.4 1.3 6.7 1.5 6.8.5.2.5.3-.5-5.4-.3-1.6-.7-3.9-.9-5.2s-.6-3.6-.9-5.2-.5-2.9-.4-3c.2-.2 2.8-.7 2.9-.6s.2 1.2.4 2.5.5 4 .8 6c.3 2.1.6 4.7.8 5.8.7 5.5.6 5 1 5 .2 0 .3-.2.3-.4-.2-1.6-.8-7.2-.9-8.2-.1-.7-.4-3.2-.7-5.8-.3-2.5-.5-4.7-.6-4.9-.2-.9 2.7-1.6 4.6-1.1 1.6.4 1.5.3 1.3 1.8-.2 1.7-1.9 16.6-2 18.2 0 .2.1.3.3.4.3 0 .4-.1.5-1.4.4-3.1 1-8.1 1.6-12.6.6-5.1.7-5.6.9-5.6.3 0 2.7.6 2.8.7s-.1 1.2-1.3 7.9c-1 5.9-1.9 10.9-1.8 11 .5.5.6-.1 2.3-9 1.3-7 1.8-9.4 1.9-9.5.1-.1.7 0 1.4.2 1.6.4 1.6.3 1 2.7-.2 1-.7 3.1-1.1 4.7-.4 1.6-.8 3.5-1 4.2-.6 2.7-1.5 6.4-1.5 6.6 0 .1.4.2 1.3.2h1.3l-.8-.2c-1-.3-1-.1-.6-2s.1-1.8 3.4-.8c1.4.4 3.2.9 3.9 1.1s2.2.6 3.2.9c1.1.3 2.3.6 2.7.8.5.1 1.4.2 2.1.2 1.5 0 1.4 0-1.5-.9-1-.3-2.8-.8-3.8-1.2-1.1-.3-2.4-.7-3-.9-2.2-.6-6.3-1.9-6.4-2-.1-.1.5-2.7.7-3.1.1-.3.3-.2 2 .4 3.4 1.2 7 2.5 7.7 2.7.4.1 2.1.7 3.8 1.3 1.7.6 4.4 1.6 5.9 2.1s3.1 1.1 3.5 1.2c.7.2 2.7.4 2.5.2-.1-.1-3.6-1.4-4.9-1.8-.4-.1-2.2-.8-4.1-1.5-3.3-1.2-7.1-2.6-13.1-4.8-1.6-.6-3-1.1-3-1.2-.1-.1.6-2.8.8-3.1.1-.2.2-.2.7 0 1.8.8 15.9 6.7 18.3 7.7.5.2 1.9.8 3.2 1.3 1.2.5 3.3 1.4 4.6 1.9s2.6 1.1 3 1.2c1.3.6 1.9.4 2.5-.7.3-.5 2.3-3.1 4.3-5.6 2.1-2.5 5.5-6.8 7.6-9.4s4.4-5.5 5.1-6.3c1.6-1.9 1.5-1.8.9-1.8-.3 0-.5.1-.5.2s-.5.7-1 1.4l-1 1.3-2.1-.1c-1.1-.1-4.3-.3-6.9-.5-2.7-.2-6-.5-7.3-.6-1.4-.1-4.3-.3-6.6-.5-2.2-.2-5.1-.4-6.3-.5s-3.5-.3-5-.4-3.9-.2-5.2-.2c-2.9 0-2.6.1 3.7.6 2.2.2 5.2.5 6.6.6s4 .4 5.8.5 4.7.4 6.7.6c1.9.2 6.2.6 9.5.8 3.3.3 6.1.5 6.2.6.1 0-.1.5-.8 1.3-1.1 1.4-1.1 1.4-3.1 1.1-.6-.1-2.8-.4-4.8-.6s-3.9-.4-4.1-.5c-.2 0-2-.3-4-.5s-5.5-.6-7.8-.9-5.2-.6-6.4-.8c-1.2-.1-3.4-.4-4.8-.6-1.4-.2-4.2-.5-6.2-.7C140.7.9 135.5.3 134.2.1c-.6-.1-1.6-.2-2.1-.1h-1l.8.1c1 .2 5.2.7 11.8 1.6 2.5.3 4.8.6 5 .7.2 0 1.7.2 3.2.4s4.5.6 6.6.8c3.6.5 6.7.9 15.4 2 10.1 1.3 11.4 1.5 11.4 1.5.1.1-4.9 6-5.8 7-.1.1-.7 0-1.6-.2-.8-.2-2.8-.7-4.4-1-1.6-.4-3.7-.9-4.6-1.1-.9-.2-2.8-.7-4.2-1s-3-.7-3.6-.8-2.5-.6-4.2-1c-1.8-.4-3.9-.9-4.6-1.1-.7-.2-2.5-.6-3.9-.9s-3.3-.8-4.2-1-2.2-.5-2.8-.6-2.2-.5-3.7-.8C130.8 3 131 3 130.2 3.3c-.4.1-1.6.4-2.6.6-3.9.9-7.7 1.8-9.3 2.2-.9.2-2.5.6-3.5.8-1 .2-3.9.9-6.5 1.5s-6.6 1.5-8.9 2.1c-2.3.5-6.2 1.4-8.5 2-2.3.5-5 1.2-5.9 1.4-3 .7-2.4 1-5.8-3l-2.9-3.5.5-.1c.3-.1 2.4-.3 4.6-.6 6.4-.7 11.4-1.3 14.8-1.8 4.2-.6 11.7-1.5 15.6-2 1.7-.2 4.9-.6 7-.9s5.7-.7 7.9-1c2.2-.3 4.2-.6 4.3-.7.4-.2-.5-.2-2.8.1C124 1 116.7 1.8 115 2c-1 .1-2.3.3-2.9.3-.6.1-2.7.4-4.7.6-1.9.2-5.3.6-7.6.9-2.2.3-5.7.7-7.8.9-2 .2-3.9.5-4.1.5s-2.1.3-4.2.5-4.6.5-5.6.7c-2.7.4-2.5.4-3.6-.9-1.2-1.5-1.2-1.5.7-1.6.9-.1 2.8-.2 4.1-.4 1.4-.1 4.7-.4 7.4-.7 2.7-.2 5.2-.5 5.5-.5s2.5-.2 4.8-.4 5.7-.5 7.7-.7 5.3-.5 7.6-.7c2.2-.2 4.1-.4 4.2-.4.1-.1-4.8 0-6.5.1-1 .1-2.8.2-4 .3s-4.5.4-7.3.6-7.1.6-9.5.7c-2.4.2-6.3.5-8.5.7s-5 .4-6.1.4l-2 .1-1-1.2C70.4.3 70.4.3 72 .2c1.2-.1 1.2-.1-.7-.1-1.6.1-2 .1-1.8.3m125.1.5c-.3.4-1.5 2.1-2.7 3.7-3.9 5.2-4.4 5.9-6.7 9-1.2 1.6-2.9 4-3.8 5.2-4.7 6.3-4.3 5.6-3.4 5.6.7-.1.6.1 5.5-6.8 1.1-1.5 2.8-3.9 3.8-5.3s2.1-2.9 2.3-3.3c.3-.4 1.8-2.4 3.3-4.6 1.6-2.2 2.9-4 2.9-4 0-.5-.8-.1-1.2.5m2.2 1.7c-.9 1.3-2.4 3.8-3.5 5.4s-2.9 4.5-4.2 6.4c-1.2 1.9-3.1 4.7-4.1 6.2s-2 3-2.1 3.3l-.3.5h.6c.7 0 .3.6 7.2-10.4 2.3-3.7 5.1-8.1 6.3-9.9 2.7-4.2 2.5-3.8 2-3.8-.2-.1-.6.3-1.9 2.3m2.5 1.4c-1.2 2.1-2.6 4.6-3.1 5.5s-1.2 2.1-1.5 2.7c-1.9 3.3-6.8 12-6.8 12.1 0 .2 1 .1 1.2-.2.1-.2 1.2-2 2.3-4.1 2.1-3.9 4.4-8.1 8.4-15.3 2.6-4.6 2.5-4.5 2.1-4.5-.3 0-.8.8-2.6 3.8m4.5-2.5c-.4.8-1 1.9-1.3 2.6s-2.7 5.4-5.2 10.6c-5.1 10.3-4.8 9.6-4.1 9.6.5 0 .5-.1 1.1-1.3.3-.7 1-2 1.4-3 .8-1.7 3.5-7.4 4.9-10.3.4-.8 1.4-2.8 2.2-4.5 2.4-5 2.5-5.1 2-5.1-.2.1-.6.6-1 1.4m3.3-.9c-.1.3-.5 1.1-.9 2-.3.8-1.1 2.5-1.6 3.8s-1.2 2.7-1.4 3.2-.7 1.6-1 2.4-.8 1.9-1 2.4-.4.9-.4.9-.5 1.1-1 2.5c-3.1 7.4-2.8 6.5-2.2 6.5.4 0 .5-.1.7-.6.3-.7 2.9-7.1 4.8-11.7.7-1.7 1.7-4.1 2.2-5.3s1-2.5 1.1-2.7c.3-.6 1.4-3.5 1.4-3.7 0-.3-.5-.1-.7.3m5.1.3c-.1.4-.3.9-.3 1.1-.1.4-2.4 8.1-3.5 11.9-.5 1.7-.9 3.2-1.8 6.2-1.3 4.4-1.2 4.2-.7 4.2s.4.2 1.7-4.6c.5-1.9 1.7-6.4 2.7-9.9C213-.2 213 .1 212.6.1c-.2.1-.3.3-.4.8m2.4-.4c-.2.9-2.4 10.5-3.1 13.8-.2.9-.5 2.4-.8 3.3-1.6 6.6-1.6 6.7-1.1 6.7.4 0 .6-.3.8-1.3.1-.6.2-.7.4-.6 1.8.5 6.8 1.9 7 1.9.4 0 .4-.3.7-4.9.1-1.9.3-5.4.4-7.8.1-2.3.2-4.4.2-4.6 0-.4.4-.4 2.5 0l.9.2-.1 1.2c-.1.6-.4 4.1-.8 7.8-.9 8.7-.8 8.1-.4 8.1h.4c.1-.5.7-6.5 1.1-9.3.7-6.2.8-7.2.9-7.3.1-.1 3.1.4 3.3.5 0 0-.5 3.6-1.3 8.5-1.4 8.4-1.3 7.7-.8 7.7s.5-.1.8-2.2c.2-1 .6-3.6 1-5.8s.8-4.8 1-5.8c.4-2.3.2-2.1 2-1.8 1.9.4 1.9.3 1.5 1.9-.2.8-.5 2.2-.7 3.2s-.6 2.9-.9 4.2c-.7 3.4-1.3 6.1-1.3 6.2 0 .6.9-.1 1.1-.8.1-.5.4-1.8.7-3.1.3-1.2.7-3.1 1-4.2.3-1.1.7-3 1-4.2s.5-2.3.6-2.4c.1-.2 3.1.3 3.4.5 0 0-.7 2.7-1.6 5.9-1.5 5.2-2.3 8.1-2.3 8.3h.5c.4-.1.5-.2 1.4-3.2 2-6.7 3.2-10.5 3.2-10.6.1-.2 3.4.5 3.4.7 0 .1-1 2.9-2.2 6.4-1.2 3.4-2.2 6.3-2.3 6.5-.1.5.8.4 1-.1.3-.8 1-2.7 2.8-7.5 1-2.7 1.8-5 1.9-5 .1-.1 3.3.5 3.5.6 0 0-.5 1.3-1.1 2.9-.7 1.5-1.8 4.2-2.5 6-1.5 3.6-1.5 3.4-.9 3.4.5 0 .5 0 2.3-4.1 2.7-6.1 3.4-7.9 3.5-7.9s2.8.5 3 .6c.4.1.4.4-.9 2.9-.6 1.3-1.8 3.7-2.7 5.4l-1.5 3.1.4.1c.6.1.5.2 4.2-7.1 1-2 2-3.8 2.1-3.8.2-.1 3.2.5 3.4.6.1.1-1.2 2.4-4.6 8.3-1.2 2.1-1.2 2-.5 1.9.5 0 .6-.2 1-.9.6-1.2.6-1.2 3.3 0 2.1.9 2.5 1 3.4 1h1l-1.2-.6c-.6-.3-2.1-1-3.2-1.4-1.1-.5-2-.9-2.1-.9-.1-.1.4-1 1.1-2.1l.4-.6 5.5 2.8c5.4 2.7 5.6 2.8 6.7 2.8l1.2.1 5.6-2.8c3.1-1.5 5.7-2.8 5.7-2.8.1 0 1.5 2.3 1.5 2.5 0 .1-.5.4-1.2.7-.7.3-2.1.9-3.2 1.4l-2 .9h1c.8 0 1.2 0 2-.4 4.4-1.9 3.9-1.8 4.6-.6.6 1 1.9 1.6 1.5.8-.1-.3-3.1-5.6-4.8-8.5-.4-.7-.7-1.3-.6-1.4.2-.2 3.2-.8 3.4-.7.1.1.9 1.7 1.9 3.6 4.2 8.2 3.7 7.3 4.3 7.2.4-.1.4-.2-2.3-5.6-1.5-3-2.7-5.6-2.6-5.6.2-.2 3.2-.8 3.4-.7.1.1 1.2 2.5 3.6 8.1.8 1.8 1.5 3.4 1.6 3.5.2.2 1 .3 1 .1 0-.1-1.4-3.4-1.9-4.6-.1-.3-.7-1.7-1.3-3.2-.6-1.5-1.3-3-1.4-3.4-.4-.9-.4-.9 1.2-1.3.7-.1 1.4-.3 1.6-.3.4-.1.4 0 2.3 5.2 2.8 7.7 2.8 7.7 3.3 7.7.6.1.8.7-1.8-6.5-1.2-3.5-2.2-6.4-2.2-6.5s2.6-.7 3.2-.7c.2 0 .4.6.9 2.1.3 1.2.8 2.5.9 3 .2.5.7 2.2 1.2 3.8.5 1.6 1 3.3 1.1 3.8.2.8.3.9.7 1 .6.1.8 1-1.5-7.1-1.1-3.8-1.9-7-1.9-7.1.2-.1 3.2-.7 3.3-.6 0 0 .3.9.5 1.9s.7 3 1 4.3c2.2 9.4 2 8.5 2.5 8.6.6.1.6.2 0-2.5-.3-1.2-.7-3.3-1-4.6-.7-3.1-1.4-6.5-1.6-7.3-.1-.4-.1-.7 0-.8.2-.1 2.7-.7 3.1-.7.1 0 .1.1.7 3.6.2 1.3.6 3.6.9 5.2.3 1.6.6 3.7.8 4.8.4 2.2.4 2.3.9 2.3.4 0 .4 0-.2-3.6-.3-1.7-.7-4.3-.9-5.8-.2-1.5-.6-3.5-.7-4.6-.2-1.2-.3-2-.2-2.1.3-.3 3.2-.8 3.3-.5 0 .1.4 3 .8 6.4s.8 7.1.9 8.1.2 1.9.2 2 .2.1.4.1c.4 0 .4 0 .3-.8-.2-1.8-.3-2.4-.8-7.2-.3-2.8-.6-5.9-.7-7s-.1-1.9 0-2 2.5-.7 3-.7c.3 0 .3.6.6 6.2.6 11.5.6 11.4 1.1 11.4.4 0 2.8-.7 5.3-1.4 1.9-.6 1.9-.6 2.1.5.2.8.2.9.6.9.5 0 .6.5-.9-5.9-.6-2.7-1.3-5.7-1.5-6.7s-.8-3.7-1.3-5.9-1-4.4-1.1-4.9c-.2-.7-.6-1.2-.6-.6 0 .1-.4.3-1 .5-.5.1-2.7.8-4.8 1.4-2.1.6-6 1.7-8.7 2.5s-6.6 1.9-8.7 2.5-4.3 1.2-4.9 1.4-3.6 1-6.7 1.9-6.1 1.8-6.7 1.9c-.6.2-2.8.8-4.9 1.4-4.4 1.3-4 1.2-6.2.6s-6.9-2-7.6-2.2c-.3-.1-4.4-1.3-9-2.6s-9.3-2.7-10.4-3c-1.1-.3-3.3-.9-4.8-1.4-1.6-.4-4.6-1.3-6.7-1.9-2.1-.6-5.2-1.5-6.9-2-1.9-.5-3-.9-3-1.1 0-.2-.5 0-.6.3m10-.1c.3.1 1 .4 1.6.6s5.7 1.9 11.4 3.9c5.7 1.9 10.9 3.7 11.6 3.9l8.7 2.9c4.1 1.4 7.6 2.5 7.8 2.5.1 0 5.5-1.8 11.9-4 13.7-4.7 21.9-7.4 26-8.8 3.7-1.2 3.8-1.3 2.3-1.3-1.2 0-1.9.2-7.3 2.2-.7.3-2.6.9-4.2 1.5s-3.4 1.2-4 1.4-1.7.6-2.5.9c-4.3 1.5-6 2.1-8.3 2.9-.6.2-2.7 1-4.7 1.6-2 .7-4.6 1.6-5.8 2-3.6 1.3-3.3 1.3-6.4.2C225.2-.3 226.6.2 225.3.2c-1.2 0-1.2 0-.7.2m9.6 0c.2.1.7.4 1.2.6 1.2.5 8.3 3.4 11.1 4.5 1.2.5 3.7 1.5 5.7 2.3 1.9.8 4.9 2 6.6 2.7 1.7.7 3.9 1.6 4.9 2l1.9.8 1.2-.5c.7-.3 3.4-1.4 6-2.4 2.6-1.1 5.5-2.2 6.5-2.6 1.8-.7 7.7-3.1 12.4-5 1.5-.6 3.3-1.4 4.2-1.7l1.5-.6h-.9c-.9-.1-1.4.1-7.3 2.6-1.3.5-2.3 1-2.4 1l-1 .4c-.5.2-1.8.8-2.9 1.2-1.1.5-3 1.3-4.2 1.8s-2.7 1.1-3.2 1.3-1.4.6-2 .8-1.4.6-1.8.8c-.8.3-4.4 1.9-5.6 2.3l-.8.3-1.5-.6c-.8-.3-3-1.3-4.7-2-1.8-.8-3.7-1.6-4.3-1.8-.6-.3-1.7-.7-2.5-1.1-3.7-1.6-6-2.5-7-2.9-.6-.3-2.3-1-3.8-1.6s-3.4-1.4-4.4-1.8c-1.4-1-3.9-1.4-2.9-.8m7.6.1c.3.2.5.3.6.3s1.2.5 2.6 1.2c1.4.7 5.9 2.8 10.1 4.8 4.2 2 8.3 4 9.1 4.4l1.5.7 9.5-4.5C290.7 0 290.1.3 289.4.2c-.5 0-2.5.9-12.1 5.6-6.3 3.1-11.6 5.7-11.7 5.7s-2.9-1.4-6.3-3C243.3.6 242.5.2 241.9.2h-.6l.5.3m5.2-.3c0 .1 0 .1 10 5.7l8.6 4.8.6-.4c.3-.2 1.9-1.1 3.5-1.9s3.8-2.1 5.1-2.8c3.2-1.8 3.8-2.1 6.8-3.8C284 .5 284.3.3 283.8.2c-.6-.1 0-.4-11.2 6-3.8 2.2-6.9 4-7 4s-1.4-.7-2.9-1.5c-1.5-.9-3.5-2-4.4-2.5s-3.2-1.8-5.1-2.9C248 .2 247-.3 247 .2m4.6.1c.1.1 1.4 1 6.8 4.4 2 1.2 4.4 2.8 5.4 3.4l1.8 1.2 3.8-2.4c2.1-1.3 5.2-3.3 6.8-4.3 3.4-2.2 3.7-2.4 3.1-2.4-.2 0-1.4.7-2.7 1.5-1.3.8-4.2 2.8-6.5 4.3s-4.2 2.8-4.4 2.8c-.1 0-1.2-.6-2.4-1.4-1.2-.8-3.2-2.1-4.4-2.9-1.2-.8-3.2-2.1-4.4-2.9-1.8-1.1-3.6-1.9-2.9-1.3m3.6-.1s2.4 1.8 5.3 3.9l5.3 3.8.4-.3c.2-.2 2.4-1.8 4.9-3.5 5.1-3.6 5.3-3.8 4.8-3.8-.3 0-1.5.9-7.6 5.4-1 .8-2 1.5-2.2 1.6-.4.2.3.7-6.8-4.6-2.9-2.1-4.1-2.9-4.1-2.5m3.8.7c1.3 1.1 6.6 5.4 6.7 5.3.3-.1 7.1-5.8 7.1-5.9.2-.5-.8.2-3.8 2.7-2.9 2.4-3.4 2.8-3.7 2.6-.1-.1-1.7-1.4-3.4-2.8S258.7.2 258.5.2c-.2 0-.1.2.5.7m59.4-.4c.1.4.9 3.4 1.4 5.4.5 1.8 1.5 5.5 2 7.4.8 2.8 2.9 10.6 2.9 10.8 0 .1.3.2.5.2.5 0 .5 0-.2-2.7-1.7-5.8-2.9-10-3.8-13.3-.6-2-1.2-4.3-1.5-5.2s-.6-1.9-.7-2.3c-.2-.7-.8-1-.6-.3m6.3 11.7c3.9 11.7 4.1 12 4.5 12.1.6.1.7.4-2.2-8-1.5-4.2-3.1-8.8-3.6-10.3-2.1-5.9-2-5.8-2.3-5.8-.4 0 .3 2 3.6 12M323.4.5c.1.2.4 1.2.8 2.1 1.6 3.8 4.3 10.5 5.1 12.7.5 1.2 1.4 3.5 2 5 1.7 4.2 1.6 4 2.1 4 .3 0 .5 0 .5-.1s-.9-2.2-1.3-3.1c-.2-.5-.4-.9-.4-1 0 0-.4-1.1-1-2.4-.5-1.3-1.4-3.2-1.9-4.4-.5-1.1-1.3-3.1-1.9-4.4-.5-1.3-1.2-2.9-1.5-3.5-2-4.7-2.3-5.3-2.6-5.4.1.1 0 .2.1.5m2.8-.1c0 .1.7 1.6 1.5 3.4s1.9 4 2.4 4.9c.5 1 1.2 2.5 1.6 3.4 1 2.1 3.9 8.3 5 10.5.8 1.6.8 1.7 1.3 1.7.7 0 .6 0-.9-3.1-.6-1.3-3.3-6.6-5.8-11.7C327 .9 326.2-.7 326.2.4m2.8-.1c0 .1 1.4 2.6 3.1 5.6s4.6 8.4 6.5 11.8c3.7 6.8 3.6 6.6 4.3 6.6.6 0 .8.4-1.9-4.3-1.3-2.3-2.8-4.9-3.3-5.8C330.1.9 329-.8 329 .3m3.2.2c.1.2.8 1.4 1.7 2.6.8 1.3 2.7 4.3 4.3 6.7 3.5 5.6 4.2 6.7 4.8 7.6.3.4 1.3 2 2.2 3.5 2.1 3.3 2.1 3.4 2.8 3.3l.5-.1-1.4-2.1c-.8-1.1-2.1-3.2-2.9-4.5-.9-1.3-2.5-3.8-3.6-5.5s-2.7-4.2-3.6-5.5C333.3.8 332.8.1 332.4 0c-.4.1-.4.2-.2.5m3.1-.3c0 .1 2.2 3.2 9.2 12.8 2.8 3.9 5.8 8.1 6.6 9.2 1.4 2 1.5 2 2.1 2 .8 0 2.1 1.9-9.7-14.1-1.2-1.7-3.4-4.6-4.8-6.5-2.4-3.1-3.4-4.1-3.4-3.4m3.5.1c0 .1 9.2 11.4 15.5 19.2 1.5 1.8 2.8 3.6 3.1 4 .5 1 1.2 1.1 3 .3 1-.4 5.3-2.2 9-3.8 2-.8 5.7-2.4 6.9-2.9 1.1-.5 4-1.7 10-4.2 2.1-.9 3.1-1.2 3.2-1.1.3.5.8 3 .7 3.1-.1.1-.6.3-1.1.5-1 .3-4 1.4-9.4 3.5-5 1.8-7.9 2.9-10.4 3.8-1.4.5-2.8 1.1-3.2 1.2l-.8.3 1.2-.1c.9-.1 1.9-.3 4.7-1.3 1.9-.7 4-1.4 4.7-1.7.6-.2 4.2-1.5 7.8-2.7 7.8-2.7 7-2.6 7.3-1.4.6 2.1.6 2.3-.2 2.5-1.2.3-13.1 4-14.6 4.5-.7.2-.7.2.7.2 1.2 0 1.8-.1 5.8-1.2 2.4-.7 4.8-1.4 5.3-1.5s1.5-.4 2.3-.7c1.7-.5 1.6-.6 2 1.3.4 1.7.4 1.7-.5 1.9l-.7.2h1.2c1.4 0 1.4.1.9-1.9-.4-1.4-.8-3.1-1.3-5.7-.2-.8-.5-2.1-.7-2.8-.7-2.7-1.7-7.1-1.6-7.4 0-.3 2.5-1.1 2.8-.9.1.1.4 1.8 2.9 15.2.6 3.2.7 3.4 1.1 3.4.3 0 .3-.1-.5-4.4-.3-1.6-.7-3.9-.9-5.2-.2-1.3-.6-3.6-.9-5.2s-.5-3.1-.6-3.5l-.1-.7.7-.2c1.1-.3 2.2-.5 2.3-.4.1.1.6 3.8 2 14.8.6 4.5.6 4.7 1 4.8.4.1.4-.2-.1-4.7-.2-2-.6-5.3-.8-7.4-.2-2-.5-4.6-.7-5.7-.3-2.2-.3-2.2.7-2.4 1.2-.2 1.8-.4 1.8-.6 0-.2-.3-.1-1.3.1-.7.2-2.1.5-3 .7-1 .2-2.7.6-3.8.9-2.3.5-4.1 1-9 2.1-1.8.4-3.7.9-4.2 1-1.1.3-7.2 1.7-9.9 2.3-1.7.4-4.7 1.1-8.9 2.1-1.2.3-3 .7-3.9.9-1 .2-2.3.5-3 .7l-1.2.3-.5-.6c-.3-.3-1-1.2-1.6-1.9s-1.7-2-2.5-2.9-1.3-1.7-1.2-1.7c.1-.1 3-.5 11.7-1.6 2.1-.3 5.2-.7 6.9-.9 9.3-1.2 15.8-2.1 23.3-3C394.7 1 399.1.4 399.8.2l.8-.2h-.9c-.5 0-1.5.1-2.2.2-1.6.2-7.1.9-11.7 1.4-2 .2-4.8.6-6.2.7-5.8.7-8 1-18.1 2.2-1.6.2-3.8.5-4.9.6-3 .4-9 1.1-10.2 1.2l-1 .1-1-1.2c-1.1-1.3-1.1-1.5.1-1.5.4 0 2.2-.1 4-.3s4.3-.4 5.6-.5c1.2-.1 3.4-.3 4.8-.4 1.4-.1 3.9-.4 5.6-.5 7.9-.7 19.3-1.7 20.2-1.8 1.2-.2-5.1-.1-7.4.1-1.5.1-3.8.3-5.1.4-1.3.1-4.1.3-6.2.5-2.2.2-5.1.4-6.5.5s-4.8.4-7.5.6c-2.7.2-5.7.4-6.6.5s-1.9.1-2.2.2c-.5.1-2.7-2.2-2.7-2.8 0-.1-.2-.2-.5-.2s-1.2.2-1.2.3M218.3 2.4c.4.1 1.7.5 2.9.8s3.7 1 5.6 1.5c1.9.5 4.4 1.2 5.6 1.5 1.2.3 2.8.8 3.6 1s2.4.7 3.7 1c1.2.3 2.9.8 3.7 1s1.8.5 2.3.6c1 .3 14.8 4 17.6 4.8 2.3.6 2.6.6 4.8 0 3.3-.9 9.3-2.6 10.8-3 .8-.2 2.4-.7 3.7-1 1.2-.3 2.9-.8 3.7-1 1.5-.4 4.1-1.1 8.8-2.4 1.7-.5 4-1.1 5.2-1.4 1.1-.3 2.8-.8 3.7-1s2.6-.7 3.8-1c1.2-.3 2.8-.8 3.6-1 .8-.2 2.2-.6 3.1-.8 2-.6 1.9-.6 2.3 1s.6 1.4-2.7 2.2c-1.5.3-3.7.8-4.8 1.1-1.1.3-3.1.7-4.4 1s-3.3.7-4.5 1-2.8.6-3.5.8-1.8.4-2.3.5-1.4.3-1.9.4c-.9.2-7.6 1.8-12.9 2.9-1.3.3-3.1.7-4 .9s-3.5.8-5.7 1.3l-4 .9-2.2-.5c-5.8-1.3-7.4-1.7-9.8-2.2-1.4-.3-3.1-.7-3.8-.8-1-.2-5.7-1.3-10-2.3-.8-.2-2.3-.5-3.2-.7s-2.6-.6-3.6-.8c-3.9-.9-7.9-1.8-8.9-2-.6-.1-2.6-.6-4.4-1-1.8-.4-3.7-.8-4.2-.9s-1-.2-1-.3c-.1-.1.2-2.1.5-2.7-.5-.3.5-.1 2.8.6m-2.1 3.5c2.1.4 2 .3 1.8 2.4v1.2l-2.1-1-2.1-1 .1-.8c.1-.8.2-1.1.4-1.1.1-.1.9.1 1.9.3m101 .6c.1.5.1.9.1.9-.3.2-4 2.1-4.1 2-.4-.4-.2-3.1.1-3.2 3.7-.8 3.7-.8 3.9.3m-269.3 0c.3 1 .3.9-2 2.1l-2 1-.1-1.5c-.2-1.8-.3-1.6 1.9-2.1 2.1-.4 2-.4 2.2.5m96.6.5c.3.2.3.4.3 2.5v2.3l-.5-.2c-2.7-1-2.6-.8-1.9-3.6l.4-1.4.7.1c.4.1.8.2 1 .3m244.3 1.6c.3 1.1.4 2 .3 2.1-.2.1-2.5 1.2-2.7 1.2 0 0-.1-1.1 0-2.4V7.1l.7-.2c1.2-.4 1.2-.4 1.7 1.7M119.1 7.3c.1.3.3 1.1.5 1.9l.4 1.5-.6.3c-.4.2-1 .5-1.5.7l-.9.3v-1.3c0-2.8.2-3.5.7-3.7 1-.3 1.3-.2 1.4.3m28.6.4l1.6.4v2.7c0 1.5-.1 2.7-.1 2.8-.1.1-2.7-1-3.1-1.3-.2-.2-.3-5-.1-5 0 0 .8.2 1.7.4M385.3 10v2.4l-1.5.7c-1.9.8-1.7 1-1.8-2.2l-.1-2.7.5-.1c.3-.1 1-.2 1.6-.4 1.4-.4 1.4-.5 1.3 2.3M116 10v2.5l-1.3.6c-2.2 1-2 1-2.1-.7-.1-.8-.1-2.1-.1-2.7V8.3l.6-.2c.7-.2 2.6-.6 2.8-.7 0 .1.1 1.2.1 2.6m36.4-1.1c1.8.4 1.6.1 1.3 3.4-.4 3.5-.2 3.3-2 2.6l-1.5-.7v-1.8c.1-3.3.2-3.9.6-3.8.3 0 1 .2 1.6.3m63.5.8l2.1 1-.1 1.7c-.1 2-.1 1.9-.8 1.6-.9-.4-3.2-1.4-3.8-1.7l-.6-.2.4-1.7.4-1.8h.1s1.1.5 2.3 1.1m164.8-.4c.1.4.1 1.7.2 2.9l.1 2.1-1.5.6c-1 .4-1.6.6-1.6.5-.1-.2-.7-5.8-.6-5.9.1-.1 3-.8 3.3-.9 0-.1.1.3.1.7M48.8 10.4c.2.9.3 1.8.2 1.8-.2.2-4.9 2.2-4.9 2.1 0 0-.1-.8-.2-1.7l-.1-1.7L46 9.8c1.2-.6 2.3-1.1 2.3-1.1.1 0 .3.7.5 1.7M111.4 9c0 .2.1 1.4.1 2.9l.1 2.6-1.5.7c-.8.4-1.5.6-1.6.6-.1-.1-.8-6-.7-6.1.1-.1 3-.9 3.2-.9.2-.1.3 0 .4.2m206.7 1.3c.2.9.3 1.7.2 1.7 0 0-1.2.6-2.5 1.1l-2.4 1.1-.1-1.7c-.1-1-.1-1.8-.1-1.8.2-.2 4.1-2.1 4.3-2.1.2.1.3.4.6 1.7M156.9 10c.8.2 1.5.4 1.6.5.1.2-.9 6.6-1 6.7-.2.2-3-1.3-3-1.6 0-1.2.7-6 .8-6 0 .1.8.2 1.6.4m219.5 2.5c.2 1.6.3 3 .3 3.2 0 .3-2.8 1.8-3 1.6-.1-.1-1.1-6.6-1-6.7.1-.1 2.9-.9 3.2-.9.1 0 .3 1.1.5 2.8m-269.2.4c.2 1.7.3 3.1.3 3.2-.2.3-2.8 1.3-3 1.2-.2-.2-1.2-6.5-1-6.7.1-.1 2.7-.8 3.1-.8.1 0 .2.5.6 3.1m54.4-1.7c.8.2 1.4.4 1.4.5s-.1.8-.3 1.6-.5 2.4-.8 3.5c-.5 2.4-.4 2.3-1.9 1.7-1.5-.6-1.7-.7-1.6-1 0-.1.3-1.6.6-3.2s.5-3.1.6-3.2c.1-.3.4-.3 2 .1M372.1 14c.7 4 .8 3.8-.8 4.4l-1.4.6c-.1 0-.2-.6-.4-1.3-.2-.7-.5-2.3-.8-3.6-.6-2.7-.7-2.4 1-2.9 2-.6 1.8-.8 2.4 2.8m-269.6-1.4c1.1 6 1.2 5.3-.7 6.1-1.5.6-1.4.7-1.8-1.1-.2-.8-.5-2.4-.8-3.5-.5-2.4-.6-2.2 1-2.6 2-.6 2-.7 2.3 1.1m63.6-.3c.7.2 1.3.4 1.4.4.1.1-2.1 7.8-2.2 7.9-.1.1-2.9-1.2-2.9-1.3 0-.1.1-.3.2-.6s.5-1.8.8-3.5c.9-3.7.8-3.5 1.1-3.3.1.1.8.2 1.6.4M368 15.9c.5 1.9.8 3.5.7 3.6-.2.1-2.5 1.2-2.7 1.2-.1 0-.4-.8-.7-1.8-1.5-5.2-1.7-6.1-1.7-6.1s.8-.2 1.6-.5c2-.5 1.7-.9 2.8 3.6M98.3 14.4c.6 2.3 1.2 5.1 1.2 5.2 0 .1-2.8 1.3-2.9 1.2 0 0-.6-1.8-1.2-4-1.1-4.1-1.2-4.1-.4-4.2.2 0 .8-.1 1.4-.3 1.4-.3 1.3-.5 1.9 2.1m72.2-1c.8.2 1.4.4 1.4.5 0 .3-2.7 7.9-2.9 8.2-.1.2-2.4-.7-2.7-1-.1-.1.3-1.5 1.4-4.9.3-1.1.7-2.3.8-2.6.1-.4.2-.6.4-.6.1.1.8.2 1.6.4M363 14.5c2.2 7.1 2.2 6.6.6 7.3-.7.3-1.3.5-1.4.5-.2-.2-2.9-8.2-2.9-8.3.1-.2 2.7-1 3-.9.2 0 .5.6.7 1.4M93.8 15c.3 1 .8 2.6 1.1 3.5.8 2.7.8 2.8.4 3-.2.1-.8.3-1.3.6-1.2.5-.9.8-2.3-3.1-1.5-4.2-1.7-5-1.6-5 .1-.1 2.8-.7 3.1-.8 0 0 .3.8.6 1.8m121.4-.8l2.6 1.1v1.6c0 .9-.1 1.6-.1 1.7-.1.2-5.3-1.6-5.7-1.9-.2-.2.4-3.5.6-3.5 0 0 1.2.4 2.6 1m103.8.6c.2.8.3 1.6.3 1.7 0 .2-.4.4-1.4.8-.8.3-2.1.8-2.9 1-.8.3-1.4.5-1.4.5s-.1-.8-.2-1.7l-.1-1.7 1.9-.8c1-.4 2.2-.9 2.6-1.1.9-.4.9-.4 1.2 1.3m-269.3 0c.1.7.3 1.5.4 1.7.1.4.3.3-3.9 1.9-2.1.8-1.9.8-2-1.2l-.2-1.7 2.5-1.1c3.1-1.3 2.8-1.3 3.2.4m125.8-.1c.8.2.8.2-.3 2.8-.5 1.2-1.1 2.7-1.4 3.4-.3.7-.8 1.6-1.2 2l-.6.7-.9-.3c-1.3-.4-1.3-.5-.9-1.5.2-.4.6-1.6.9-2.5s.8-2.1 1-2.7c.2-.5.5-1.3.7-1.8l.3-.8 1 .2c.4.2 1.1.4 1.4.5m182.8-.2c.1.2.5 1.4 1 2.7s1.1 3 1.4 3.8c.6 1.7.6 1.7-.7 2.2l-.9.3-.7-.8c-.4-.5-1-1.5-1.4-2.5-2.6-6.1-2.5-5.4-.7-5.8 1.8-.3 1.8-.3 2 .1M89.8 16.7c.5 1.3 1.2 3.2 1.5 4.3.4 1 .7 1.9.6 1.9 0 0-.5.2-1.1.5l-1 .4-.6-.7c-.7-.8-1-1.5-2-3.9-.4-1.1-1-2.3-1.2-2.8-.5-1.2-.5-1.3.2-1.5 3-.8 2.6-1 3.6 1.8m168.1-2c1.1.2 3.2.7 4.7 1 3.3.7 2.6.7 6 0 7.9-1.7 7.7-1.7 5.6-.5-1.8 1-5.9 3.4-7.2 4.2-1.6 1-.6 1.4-8.2-3.1-3.9-2.2-3.8-2.2-.9-1.6m-79.3.8c.1.1-.5.9-1.2 1.7-1.6 1.9-1.7 1.9-.9.2.3-.7.7-1.5.8-1.8 0-.5.8-.5 1.3-.1m176.1 1.6c.9 2.1.9 2.1-.7.2s-1.6-1.8-.9-2c.7-.1.7 0 1.6 1.8m-269.8-.8c.6 1.4 1.1 2.6 1 2.6-.1.1-2.4-2.7-2.7-3.1-.1-.2.5-.4 1.1-.5.1 0 .4.5.6 1m173.2.6c3.2 1.8 5.6 3.2 6.7 3.9l.7.4 5.2-3c2.8-1.6 5.2-3 5.3-3 .1 0 1.6 2.5 1.5 2.6s-2.8 1.5-8.4 4.3l-3.5 1.8-1.9-.9c-11.6-5.9-10.3-5-9.4-6.5.9-1.4.4-1.5 3.8.4m-43.3 2c2.2.8 2.8 1.1 2.8 1.3v1.6c0 1.6 0 1.5-1.9.9-.7-.2-2.1-.6-3-.9-1.1-.3-1.8-.6-1.8-.8 0-.1.1-.7.3-1.3.1-.6.3-1.3.3-1.5 0-.5 0-.5 3.3.7m104.9-.8c.2.7.6 3.1.6 3.1s-1.1.4-2.3.8-2.7.8-3.2 1c-1.1.4-1.1.4-1.2-1.5l-.1-1.6 2.8-1c3.3-1.2 3.3-1.2 3.4-.8m-269 1.3c.5 2.1.6 1.9-1.7 2.6-1.1.3-2.5.8-3 .9-1.6.5-1.6.6-1.6-1.3V20l2.9-1c3.3-1.2 3-1.2 3.4.4" fill-rule="evenodd" clip-rule="evenodd" fill="#1d1d1b"/></svg>