<svg xmlns="http://www.w3.org/2000/svg" viewBox="0 0 400.75 24.77"><defs><linearGradient id="a" x1="200.37" y1="1078.77" x2="200.37" y2="1054" gradientTransform="translate(0 -1054)" gradientUnits="userSpaceOnUse"><stop offset="0" stop-color="#f1ebe4" stop-opacity="0"/><stop offset="1" stop-color="#f1ebe4"/></linearGradient></defs><path d="M210 .5c-.2.4-1 2.6-2.1 5.7-.4 1.2-2 5.7-3.5 10-3 8.5-2.9 8.3-2.4 8.3s.1 1.2 4.7-12.8C209.6 3 210.5.3 210.3.2c0-.1-.2.1-.3.3M1.85 1.6C.45 2.7-.65 4 .45 3.2c.7-.5 3.6-2.9 3.6-2.9-.05-.3-.9.2-2.2 1.3m1.4 1c-2.7 2-3.4 2.7-3 2.7C.35 5.3 6.85.6 7 .4c.3-.6-1 .2-3.7 2.2m5.1-1.3c-.8.5-3 2-4.8 3.2S.25 6.7.15 6.7v.2a7.79 7.79 0 002.1-1.1c1.1-.7 3.5-2.2 5.3-3.3s3.2-2.1 3.2-2.1c.1-.4-1.1.1-2.4.9m3.3.5c-1.4.8-3.3 1.9-4.2 2.5S5 5.7 4 6.3a30.76 30.76 0 00-2.8 1.5c-.8.5-1.1.7-1 .9l2.2-1.1C3.7 6.9 7 5.1 9.9 3.5 15.7.3 15.7.3 14.9.3a9.06 9.06 0 00-3.2 1.5M10 5.1c-5.4 2.7-9.8 5-9.8 5 0 .2.5 0 3.2-1.3 1.4-.6 5.9-2.7 10-4.7C21.5.2 21.4.3 20.5.3c-.6 0-2.9 1.1-10.5 4.8m14.7-3.9c-1.1.5-3.5 1.5-5.3 2.3S15.7 5 15.2 5.3s-2.1.9-3.6 1.5a45.32 45.32 0 00-4.9 2l-4.4 1.8c-1.9.8-2.5 1.2-2 1.2.1 0 2.6-1 7-2.8.8-.3 3.1-1.3 5.2-2.1s4.7-1.9 5.8-2.3S22 3 24.15 2.2c4.7-1.9 4.7-1.9 3.5-1.9a8 8 0 00-3 .9M18 6.6C8.25 10.1.25 13 .15 13.1s0 .2.2.1 2.9-1 6.1-2.1 7.5-2.5 9.6-3.2S24 5.2 29 3.6 38.15.5 38.15.4A6.76 6.76 0 0037 .3c-1.2 0-1.6.1-19 6.3m28.9-6c0 .2-.2.4-.7.5l-4 1.1c-1.8.5-5.7 1.7-8.7 2.5s-7.1 2.1-9.2 2.7-4.3 1.2-4.95 1.4-3.6 1-6.7 1.9-7.1 2.1-9 2.6a24.42 24.42 0 00-3.5 1.1c-.3.3.2.2 1.1-.1.6-.2 2.2-.6 3.7-1s3.2-.9 4-1.1c2.4-.7 9-2.5 12.2-3.3.8-.2 2.7-.7 4.2-1.2s3.8-1 4.9-1.3 3.1-.8 4.2-1.2 3.3-.9 4.6-1.3 3.6-1 5.1-1.4c3.1-.8 2.8-.9 3.2.8.3 1.5.3 1.5-.8 1.7S35.15 7.6 32 8.3c-1.4.3-3.4.8-4.4 1s-3.3.8-5.2 1.2c-3.4.8-5.2 1.2-9.2 2.1-1.2.3-2.9.6-3.8.8s-2.3.5-3.2.8-2.6.6-3.8.9a15.58 15.58 0 00-2.2.6c-.3.2.3.2 2.6-.4 1.2-.3 2.6-.5 3-.6l.8-.1-.8.5c-.5.3-1.9 1.1-3.2 1.9-2 1.2-2.3 1.4-2.4 1.8-.1.6-.1.6 5.2-2.5l1.4-.8A15 15 0 018.25 18c0 .1-1.8 1-4.1 2.2-3.7 2-4 2.2-4 2.6v.5l1.1-.5c.6-.3 2.5-1.2 4.3-2.1 3.6-1.8 3.4-1.7 4.2-.3s.9 1.3-1.3 2.2c-1 .4-2.4 1-3 1.3l-1.2.5h1.1a4.48 4.48 0 002-.4c3.8-1.7 3.7-1.6 4.1-.7s.7 1.1 1.2 1.1.6-.1-1.7-4c-3.3-5.8-3.4-6-3.3-6.1a21.69 21.69 0 013.5-.7s1.2 2.4 2.7 5.2c2.9 5.8 2.8 5.6 3.4 5.6s.6.2-2.2-5.5c-2.7-5.5-2.8-5.6-2.3-5.7a12.44 12.44 0 013.1-.5 39.73 39.73 0 012 4.4c.4.9 1.2 2.7 1.8 4s1.1 2.5 1.2 2.8.3.5.7.5c.6 0 .7.5-1.1-3.9-4-9.5-3.8-8.2-1.3-8.6 1.6-.3 1.4-.4 2.1 1.6.8 2.2 2.1 5.7 2.5 6.8.2.5.6 1.6 1 2.5.6 1.5.7 1.7 1.1 1.7s.5.1.1-1c-.2-.5-.8-2.2-1.3-3.7s-1.4-4-1.9-5.5c-1.1-3-1.1-2.8.6-3.2.7-.1 1.4-.3 1.6-.3s.4.1.8 1.4c.5 1.6 1.7 5.8 2.9 9.7.8 2.5.8 2.6 1.2 2.6s.5 0 .4-.2a21.19 21.19 0 00-.6-2.1c-1.1-3.9-2.2-7.8-2.6-9.2-.2-.8-.5-1.6-.6-1.9a1.76 1.76 0 01-.1-.6 19.06 19.06 0 013-.7c.3 0 .2-.5 3.1 11.6.7 2.9.7 3 1.2 3.1.2 0 .5 0 .5-.1s-1.8-8.1-2.8-12.5c-.6-2.5-.6-2.4 1.2-2.8s1.7-.5 2 1.7c.2 1 .6 3.6 1 5.7s.8 4.8 1 5.8c.3 2.1.4 2.2.9 2.2s.4.1-.2-3.6c-.2-1.1-.6-3.9-1-6.2s-.7-4.6-.8-5.1c-.1-.8-.1-.9.2-1a21.51 21.51 0 012.9-.6c.1.1.2.8 1.6 13.5.3 2.7.4 3.2.9 3 .2-.1.2-.3.2-.7s-.3-3.4-.7-6.7-.7-6.6-.7-7.3c-.3-2.2-.4-2.1 1.2-2.4 2.1-.4 1.9-.5 2 1.1.1 2.1.6 9.8.7 12 .1 1.1.1 2.5.2 3l.1 1h.6a31.73 31.73 0 005.6-1.4c.7-.2 1.3-.4 1.4-.4s.1.3.2.6c.2.9.4 1.2.7 1.2s.4-.1-.3-3c-.3-1.4-.8-3.4-1-4.4s-.6-2.7-.8-3.7c-.5-2-1.5-6.6-2.3-10.1-.3-1.2-.5-2.4-.6-2.6-.3-.5-.7-.6-.7-.1m2.3-.2c0 .2.9 3.5 1.8 6.7.3 1.2 1.5 5.5 2.6 9.7 2 7.4 2.1 7.6 2.5 7.6.6.1.7.5-1.3-6.4-1-3.4-2.3-8.1-3-10.5s-1.4-4.8-1.6-5.3a5.62 5.62 0 01-.4-1.5c-.1-.4-.6-.6-.6-.3m2.4.2c.1.2 1.3 3.7 2.7 7.9 5.8 17.2 5.3 15.9 5.8 16s.5-.3-2.4-8.4c-.3-.7-.7-2-1-2.8-.9-2.5-1.5-4.2-3.3-9.5-1-2.8-1.3-3.5-1.5-3.5s-.4 0-.3.3m2.6-.2c0 .2.4 1.3 2.7 6.9 1.2 2.9 3.1 7.6 5 12.3 2.1 5.1 1.9 4.8 2.5 4.8.3 0 .5-.1.4-.2s-.5-1.2-1-2.4-1.5-3.6-2.3-5.4-1.5-3.7-1.8-4.2c-.8-1.8-2.4-5.6-3-7.1-.3-.8-.7-1.7-.8-1.9s-.4-1-.7-1.7c-.4-1-1-1.7-1-1.1M57 .7c.1.3.7 1.4 1.2 2.6 1 2.1 4.1 8.5 5.7 11.9 4.2 9 4.3 9.2 4.9 9.2s1 .9-2.9-7.2C57.75.8 57.45.2 57.15.2s-.3.1-.2.5m2.9-.3c0 .1 1.3 2.5 2.9 5.4s4 7.3 5.4 9.9c4.9 9 4.7 8.7 5.3 8.7s.7-.2.2-1c-.2-.3-.8-1.4-1.4-2.4-2.3-4.1-7.6-13.4-9.2-16.1-.5-.8-1.1-1.9-1.5-2.6-1-1.8-1.7-2.6-1.7-1.9m3 .1a10.16 10.16 0 001 1.6c1.6 2.4 2.8 4.4 10.9 17.1 3.6 5.7 3.2 5.2 3.9 5.2s.8.2-1.6-3.4c-3.1-4.8-6.4-9.8-8.9-13.6-4.6-7-4.7-7.2-5-7.2s-.3.1-.3.3m3.5.3c.8 1.1 10.5 14.7 11.2 15.5.3.4 1.7 2.3 3.1 4.3 2.6 3.6 2.6 3.7 3.3 3.7s.9.1-2-3.7c-1.3-1.8-3-4.1-3.8-5.1s-2.3-3.1-3.4-4.6-3.3-4.5-5-6.7c-2.5-3.4-3-4-3.4-4H66l.4.6m3.3-.3c.1.1 1 1.2 2 2.5s2.5 3.1 3.3 4.1c1.8 2.2 8.3 10.3 11.2 13.8a24.68 24.68 0 012.2 3.1c.2.5.2.6 1.1.6 1.1 0 1 0 9.5-3.6 1.2-.5 2.7-1.1 3.2-1.4 2.4-1 6.4-2.7 10.3-4.3l4.5-1.9c1.2-.5 2.4-1 2.7-1.2.7-.3.7-.3 1.1 1.4s.5 1.6-.9 2.1c-1.8.6-7.9 2.9-13.7 5-1.9.7-6.8 2.5-8.8 3.2l-1.1.4.9.1a5.66 5.66 0 001.8-.3c1-.3 3.6-1.3 9.4-3.3 1.8-.6 4.5-1.6 5.8-2s3.3-1.2 4.2-1.5c2.6-1 2.8-1 3-.2.5 2 .7 2.6.5 2.6s-.5.2-.9.3-1 .3-1.3.4c-1.3.3-12.9 3.9-13 4-.4.4 2.9 0 5.2-.7 1.5-.4 3.3-.9 4.1-1.2s2.5-.7 3.8-1.1 2.4-.7 2.5-.7a8.9 8.9 0 01.8 3.3.76.76 0 01-.5.2c-.2 0 .1.1.5.1.6 0 .9 0 .9-.2s-.6-2.7-3-12.9c-1.2-5.1-1.2-4.7.4-5.1s1.5-.5 1.9 2c.2 1.1.5 2.9.8 4.1s.7 3.5 1 5.3c1 5.4 1.3 6.7 1.5 6.8.5.2.5.3-.5-5.4-.3-1.6-.7-3.9-.9-5.2s-.6-3.6-.9-5.2a13.21 13.21 0 01-.4-3 10.72 10.72 0 012.9-.6 20.57 20.57 0 01.4 2.5c.2 1.3.5 4 .8 6s.6 4.7.8 5.8c.7 5.5.6 5 1 5 .2 0 .3-.2.3-.4-.2-1.6-.8-7.2-.9-8.2-.1-.7-.4-3.2-.7-5.8s-.5-4.7-.6-4.9c-.2-.9 2.7-1.6 4.6-1.1 1.6.4 1.5.3 1.3 1.8-.2 1.7-1.9 16.6-2 18.2 0 .2.1.3.3.4s.4-.1.5-1.4c.4-3.1 1-8.1 1.6-12.6.6-5.1.7-5.6.9-5.6a19.07 19.07 0 012.8.7c.1.1-.1 1.2-1.3 7.9-1 5.9-1.9 10.9-1.8 11 .5.5.6-.1 2.3-9 1.3-7 1.8-9.4 1.9-9.5a2.83 2.83 0 011.4.2c1.6.4 1.6.3 1 2.7-.2 1-.7 3.1-1.1 4.7s-.8 3.5-1 4.2c-.6 2.7-1.5 6.4-1.5 6.6s.4.2 1.3.2h1.3l-.8-.2c-1-.3-1-.1-.6-2s.1-1.8 3.4-.8l3.9 1.1c.7.2 2.2.6 3.2.9a24.8 24.8 0 012.7.8 12.48 12.48 0 002.1.2c1.5 0 1.4 0-1.5-.9-1-.3-2.8-.8-3.8-1.2s-2.4-.7-3-.9c-2.2-.6-6.3-1.9-6.4-2a14.8 14.8 0 01.7-3.1c.1-.3.3-.2 2 .4 3.4 1.2 7 2.5 7.7 2.7.4.1 2.1.7 3.8 1.3s4.4 1.6 5.9 2.1 3.1 1.1 3.5 1.2c.7.2 2.7.4 2.5.2s-3.6-1.4-4.9-1.8c-.4-.1-2.2-.8-4.1-1.5L143.55 16a22.78 22.78 0 01-3-1.2 14.2 14.2 0 01.8-3.1c.1-.2.2-.2.7 0 1.8.8 15.9 6.7 18.3 7.7.5.2 1.9.8 3.2 1.3s3.3 1.4 4.6 1.9 2.6 1.1 3 1.2c1.3.6 1.9.4 2.5-.7.3-.5 2.3-3.1 4.3-5.6s5.5-6.8 7.6-9.4 4.4-5.5 5.1-6.3c1.6-1.9 1.5-1.8.9-1.8-.3 0-.5.1-.5.2a15 15 0 01-1 1.4l-1 1.3-2.05-.1c-1.1-.1-4.3-.3-6.9-.5s-6-.5-7.3-.6-4.3-.3-6.6-.5-5.1-.4-6.3-.5-3.5-.3-5-.4-3.9-.2-5.2-.2c-2.9 0-2.6.1 3.7.6 2.2.2 5.2.5 6.6.6s4 .4 5.8.5 4.7.4 6.7.6 6.2.6 9.5.8 6.1.5 6.2.6-.1.5-.8 1.3c-1.1 1.4-1.1 1.4-3.1 1.1-.6-.1-2.8-.4-4.8-.6s-3.9-.4-4.1-.5-2-.3-4-.5-5.5-.6-7.8-.9-5.2-.6-6.4-.8-3.4-.4-4.8-.6-4.2-.5-6.2-.7C140.9 1 135.7.4 134.4.2a7.58 7.58 0 00-2.1-.1h-1l.8.1c1 .2 5.2.7 11.8 1.6 2.5.3 4.8.6 5 .7s1.7.2 3.2.4 4.5.6 6.6.8c3.6.5 6.7.9 15.4 2 10.1 1.3 11.4 1.5 11.4 1.5s-4.9 6-5.8 7a3.76 3.76 0 01-1.6-.2c-.8-.2-2.8-.7-4.4-1s-3.7-.9-4.6-1.1-2.8-.7-4.2-1-3-.7-3.6-.8-2.5-.6-4.2-1-3.9-.9-4.6-1.1-2.5-.6-3.9-.9-3.3-.8-4.2-1-2.2-.5-2.8-.6-2.2-.5-3.7-.8c-6.9-1.6-6.7-1.6-7.5-1.3-.4.1-1.6.4-2.6.6-3.9.9-7.7 1.8-9.3 2.2-.9.2-2.5.6-3.5.8s-3.9.9-6.5 1.5-6.6 1.5-8.9 2.1-6.2 1.4-8.5 2-5 1.2-5.9 1.4c-3 .7-2.4 1-5.8-3l-2.9-3.5.5-.1c.3-.1 2.4-.3 4.6-.6C88 6.1 93 5.5 96.35 5c4.2-.6 11.7-1.5 15.6-2 1.7-.2 4.9-.6 7-.9s5.7-.7 7.9-1a39.29 39.29 0 004.3-.7c.4-.2-.5-.2-2.8.1-4.2.6-11.5 1.4-13.2 1.6-1 .1-2.3.3-2.9.3s-2.7.4-4.7.6-5.3.6-7.6.9-5.7.7-7.8.9-3.9.5-4.1.5-2.1.3-4.2.5-4.6.5-5.6.7c-2.7.4-2.5.4-3.6-.9-1.2-1.5-1.2-1.5.7-1.6.9-.1 2.8-.2 4.1-.4s4.7-.4 7.4-.7 5.2-.5 5.5-.5 2.5-.2 4.8-.4 5.7-.5 7.7-.7 5.3-.5 7.6-.7l4.2-.4c.1-.1-4.8 0-6.5.1-1 .1-2.8.2-4 .3s-4.5.4-7.3.6-7.1.6-9.5.7-6.3.5-8.5.7-5 .4-6.1.4l-2 .1-1-1.2c-1.2-1.5-1.2-1.5.4-1.6 1.2-.1 1.2-.1-.7-.1-1.6.1-2 .1-1.8.3m125.1.5c-.3.4-1.5 2.1-2.7 3.7-3.9 5.2-4.4 5.9-6.7 9-1.2 1.6-2.9 4-3.8 5.2-4.7 6.3-4.3 5.6-3.4 5.6.7-.1.6.1 5.5-6.8 1.1-1.5 2.8-3.9 3.8-5.3s2.1-2.9 2.3-3.3 1.8-2.4 3.3-4.6l2.9-4c0-.5-.8-.1-1.2.5M197 2.7c-.9 1.3-2.4 3.8-3.5 5.4s-2.9 4.5-4.2 6.4-3.1 4.7-4.1 6.2-2 3-2.1 3.3l-.3.5h.6c.7 0 .3.6 7.2-10.4 2.3-3.7 5.1-8.1 6.3-9.9 2.7-4.2 2.5-3.8 2-3.8-.2-.1-.6.3-1.9 2.3m2.5 1.4c-1.2 2.1-2.6 4.6-3.1 5.5s-1.2 2.1-1.5 2.7c-1.9 3.3-6.8 12-6.8 12.1s1 .1 1.2-.2 1.2-2 2.3-4.1c2.1-3.9 4.4-8.1 8.4-15.3 2.6-4.6 2.5-4.5 2.1-4.5s-.8.8-2.6 3.8m4.5-2.5c-.4.8-1 1.9-1.3 2.6s-2.7 5.4-5.2 10.6c-5.1 10.3-4.8 9.6-4.1 9.6.5 0 .5-.1 1.1-1.3.3-.7 1-2 1.4-3 .8-1.7 3.5-7.4 4.9-10.3.4-.8 1.4-2.8 2.2-4.5 2.4-5 2.5-5.1 2-5.1a3.74 3.74 0 00-1 1.4m3.3-.9c-.1.3-.5 1.1-.9 2s-1.1 2.5-1.6 3.8-1.2 2.7-1.4 3.2-.7 1.6-1 2.4-.8 1.9-1 2.4-.4.9-.4.9-.5 1.1-1 2.5c-3.1 7.4-2.8 6.5-2.2 6.5.4 0 .5-.1.7-.6.3-.7 2.9-7.1 4.8-11.7.7-1.7 1.7-4.1 2.2-5.3s1-2.5 1.1-2.7A37.24 37.24 0 00208 .4c0-.3-.5-.1-.7.3m5.1.3a9.68 9.68 0 00-.3 1.1c-.1.4-2.4 8.1-3.5 11.9-.5 1.7-.9 3.2-1.8 6.2-1.3 4.4-1.2 4.2-.7 4.2s.4.2 1.7-4.6c.5-1.9 1.7-6.4 2.7-9.9 2.7-10 2.7-9.7 2.3-9.7-.2.1-.3.3-.4.8m2.4-.4c-.2.9-2.4 10.5-3.1 13.8-.2.9-.5 2.4-.8 3.3-1.6 6.6-1.6 6.7-1.1 6.7s.6-.3.8-1.3c.1-.6.2-.7.4-.6 1.8.5 6.8 1.9 7 1.9.4 0 .4-.3.7-4.9.1-1.9.3-5.4.4-7.8s.2-4.4.2-4.6c0-.4.4-.4 2.5 0l.9.2-.1 1.2c-.1.6-.4 4.1-.8 7.8-.9 8.7-.8 8.1-.4 8.1h.4c.1-.5.7-6.5 1.1-9.3.7-6.2.8-7.2.9-7.3a20.34 20.34 0 013.3.5s-.5 3.6-1.3 8.5c-1.4 8.4-1.3 7.7-.8 7.7s.5-.1.8-2.2c.2-1 .6-3.6 1-5.8s.8-4.8 1-5.8c.4-2.3.2-2.1 2-1.8s1.9.3 1.5 1.9c-.2.8-.5 2.2-.7 3.2s-.6 2.9-.9 4.2c-.7 3.4-1.3 6.1-1.3 6.2 0 .6.9-.1 1.1-.8.1-.5.4-1.8.7-3.1s.7-3.1 1-4.2.7-3 1-4.2.5-2.3.6-2.4a10.77 10.77 0 013.4.5s-.7 2.7-1.6 5.9c-1.5 5.2-2.3 8.1-2.3 8.3h.5c.4-.1.5-.2 1.4-3.2 2-6.7 3.2-10.5 3.2-10.6a9.83 9.83 0 013.4.7c0 .1-1 2.9-2.2 6.4s-2.2 6.3-2.3 6.5c-.1.5.8.4 1-.1.3-.8 1-2.7 2.8-7.5 1-2.7 1.8-5 1.9-5a23.34 23.34 0 013.5.6s-.5 1.3-1.1 2.9-1.8 4.2-2.5 6c-1.5 3.6-1.5 3.4-.9 3.4s.5 0 2.3-4.1c2.7-6.1 3.4-7.9 3.5-7.9s2.8.5 3 .6c.4.1.4.4-.9 2.9-.6 1.3-1.8 3.7-2.7 5.4l-1.5 3.1.4.1c.6.1.5.2 4.2-7.1a30 30 0 012.1-3.8 20.21 20.21 0 013.4.6c.1.1-1.2 2.4-4.6 8.3-1.2 2.1-1.2 2-.5 1.9.5 0 .6-.2 1-.9.6-1.2.6-1.2 3.3 0 2.1.9 2.5 1 3.4 1h1l-1.2-.6c-.6-.3-2.1-1-3.2-1.4s-2-.9-2.1-.9a6.51 6.51 0 011.1-2.1l.4-.6 5.5 2.8c5.4 2.7 5.6 2.8 6.7 2.8l1.2.1 5.6-2.8c3.1-1.5 5.7-2.8 5.7-2.8a15 15 0 011.5 2.5 3.1 3.1 0 01-1.2.7c-.7.3-2.1.9-3.2 1.4l-2 .9h1a3.61 3.61 0 002-.4c4.4-1.9 3.9-1.8 4.6-.6.6 1 1.9 1.6 1.5.8-.1-.3-3.1-5.6-4.8-8.5-.4-.7-.7-1.3-.6-1.4a13.72 13.72 0 013.4-.7c.1.1.9 1.7 1.9 3.6 4.2 8.2 3.7 7.3 4.3 7.2.4-.1.4-.2-2.3-5.6a56.18 56.18 0 01-2.6-5.6 13.72 13.72 0 013.4-.7c.1.1 1.2 2.5 3.6 8.1.8 1.8 1.5 3.4 1.6 3.5s1 .3 1 .1-1.4-3.4-1.9-4.6c-.1-.3-.7-1.7-1.3-3.2s-1.3-3-1.4-3.4c-.4-.9-.4-.9 1.2-1.3.7-.1 1.4-.3 1.6-.3.4-.1.4 0 2.3 5.2 2.8 7.7 2.8 7.7 3.3 7.7s.8.7-1.8-6.5c-1.2-3.5-2.2-6.4-2.2-6.5a15.61 15.61 0 013.2-.7c.2 0 .4.6.9 2.1.3 1.2.8 2.5.9 3s.7 2.2 1.2 3.8 1 3.3 1.1 3.8c.2.8.3.9.7 1 .6.1.8 1-1.5-7.1-1.1-3.8-1.9-7-1.9-7.1a21 21 0 013.3-.6 17.9 17.9 0 01.5 1.9c.2 1 .7 3 1 4.3 2.2 9.4 2 8.5 2.5 8.6s.6.2 0-2.5c-.3-1.2-.7-3.3-1-4.6-.7-3.1-1.4-6.5-1.6-7.3-.1-.4-.1-.7 0-.8a23.76 23.76 0 013.1-.7c.1 0 .1.1.7 3.6.2 1.3.6 3.6.9 5.2s.6 3.7.8 4.8c.4 2.2.4 2.3.9 2.3s.4 0-.2-3.6c-.3-1.7-.7-4.3-.9-5.8s-.6-3.5-.7-4.6a6.46 6.46 0 01-.2-2.1c.3-.3 3.2-.8 3.3-.5 0 .1.4 3 .8 6.4s.8 7.1.9 8.1.2 1.9.2 2 .2.1.4.1c.4 0 .4 0 .3-.8-.2-1.8-.3-2.4-.8-7.2-.3-2.8-.6-5.9-.7-7a5.78 5.78 0 010-2 16.7 16.7 0 013-.7c.3 0 .3.6.6 6.2.6 11.5.6 11.4 1.1 11.4s2.8-.7 5.3-1.4c1.9-.6 1.9-.6 2.1.5.2.8.2.9.6.9s.6.5-.9-5.9c-.6-2.7-1.3-5.7-1.5-6.7s-.8-3.7-1.3-5.9-1-4.4-1.1-4.9c-.2-.7-.6-1.2-.6-.6 0 .1-.4.3-1 .5s-2.7.8-4.8 1.4-6 1.7-8.7 2.5-6.6 1.9-8.7 2.5-4.3 1.2-4.9 1.4-3.6 1-6.7 1.9-6.1 1.8-6.7 1.9-2.8.8-4.9 1.4c-4.4 1.3-4 1.2-6.2.6s-6.9-2-7.6-2.2c-.3-.1-4.4-1.3-9-2.6s-9.3-2.7-10.4-3-3.3-.9-4.8-1.4-4.6-1.3-6.7-1.9l-6.9-2c-1.9-.5-3-.9-3-1.1s-.5 0-.6.3m10-.1c.3.1 1 .4 1.6.6S232.1 3 237.8 5s10.9 3.7 11.6 3.9l8.7 2.9c4.1 1.4 7.6 2.5 7.8 2.5s5.5-1.8 11.9-4c13.7-4.7 21.9-7.4 26-8.8 3.7-1.2 3.8-1.3 2.3-1.3-1.2 0-1.9.2-7.3 2.2-.7.3-2.6.9-4.2 1.5s-3.4 1.2-4 1.4-1.7.6-2.5.9l-8.3 2.9c-.6.2-2.7 1-4.7 1.6s-4.6 1.6-5.8 2c-3.6 1.3-3.3 1.3-6.4.2C225.35-.2 226.75.3 225.45.3s-1.2 0-.7.2m9.6 0a13 13 0 001.2.6c1.2.5 8.3 3.4 11.1 4.5 1.2.5 3.7 1.5 5.7 2.3s4.9 2 6.6 2.7l4.9 2 1.9.8 1.2-.5c.7-.3 3.4-1.4 6-2.4s5.5-2.2 6.5-2.6c1.8-.7 7.7-3.1 12.4-5 1.5-.6 3.3-1.4 4.2-1.7l1.5-.6h-.9c-.9-.1-1.4.1-7.3 2.6-1.3.5-2.3 1-2.4 1l-1 .4c-.5.2-1.8.8-2.9 1.2s-3 1.3-4.2 1.8-2.7 1.1-3.2 1.3-1.4.6-2 .8a15.86 15.86 0 00-1.8.8c-.8.3-4.4 1.9-5.6 2.3l-.8.3-1.5-.6c-.8-.3-3-1.3-4.7-2s-3.7-1.6-4.3-1.8-1.7-.7-2.5-1.1c-3.7-1.6-6-2.5-7-2.9-.6-.3-2.3-1-3.8-1.6s-3.4-1.4-4.4-1.8c-1.4-1-3.9-1.4-2.9-.8m7.6.1a1.55 1.55 0 00.6.3 25.64 25.64 0 012.6 1.2c1.4.7 5.9 2.8 10.1 4.8s8.3 4 9.1 4.4l1.5.7 9.5-4.5c15.5-7.4 14.9-7.1 14.2-7.2-.5 0-2.5.9-12.1 5.6-6.3 3.1-11.6 5.7-11.7 5.7s-2.9-1.4-6.3-3c-16-7.9-16.8-8.3-17.4-8.3h-.6l.5.3m5.2-.3c0 .1 0 .1 10 5.7l8.6 4.8.6-.4c.3-.2 1.9-1.1 3.5-1.9s3.8-2.1 5.1-2.8c3.2-1.8 3.8-2.1 6.8-3.8 2.4-1.3 2.7-1.5 2.2-1.6s0-.4-11.2 6c-3.8 2.2-6.9 4-7 4s-1.4-.7-2.9-1.5-3.5-2-4.4-2.5-3.2-1.8-5.1-2.9c-5.2-3.1-6.2-3.6-6.2-3.1m4.6.1c.1.1 1.4 1 6.8 4.4 2 1.2 4.4 2.8 5.4 3.4l1.8 1.2 3.8-2.4c2.1-1.3 5.2-3.3 6.8-4.3 3.4-2.2 3.7-2.4 3.1-2.4a17.23 17.23 0 00-2.7 1.5c-1.3.8-4.2 2.8-6.5 4.3s-4.2 2.8-4.4 2.8a16.34 16.34 0 01-2.4-1.4l-4.4-2.9-4.4-2.9c-1.8-1.1-3.6-1.9-2.9-1.3m3.6-.1s2.4 1.8 5.3 3.9L266 8l.4-.3c.2-.2 2.4-1.8 4.9-3.5 5.1-3.6 5.3-3.8 4.8-3.8-.3 0-1.5.9-7.6 5.4a23.63 23.63 0 01-2.2 1.6c-.4.2.3.7-6.8-4.6-2.9-2.1-4.1-2.9-4.1-2.5m3.8.7c1.3 1.1 6.6 5.4 6.7 5.3.3-.1 7.1-5.8 7.1-5.9.2-.5-.8.2-3.8 2.7s-3.4 2.8-3.7 2.6c-.1-.1-1.7-1.4-3.4-2.8a26.55 26.55 0 00-3.4-2.6c-.2 0-.1.2.5.7m59.4-.4c.1.4.9 3.4 1.4 5.4.5 1.8 1.5 5.5 2 7.4.8 2.8 2.9 10.6 2.9 10.8s.3.2.5.2c.5 0 .5 0-.2-2.7-1.7-5.8-2.9-10-3.8-13.3-.6-2-1.2-4.3-1.5-5.2s-.6-1.9-.7-2.3c-.2-.7-.8-1-.6-.3m6.3 11.7c3.9 11.7 4.1 12 4.5 12.1.6.1.7.4-2.2-8-1.5-4.2-3.1-8.8-3.6-10.3-2.1-5.9-2-5.8-2.3-5.8s.3 2 3.6 12M323.55.6c.1.2.4 1.2.8 2.1 1.6 3.8 4.3 10.5 5.1 12.7.5 1.2 1.4 3.5 2 5 1.7 4.2 1.6 4 2.1 4 .3 0 .5 0 .5-.1s-.9-2.2-1.3-3.1a9.42 9.42 0 01-.4-1s-.4-1.1-1-2.4-1.4-3.2-1.9-4.4-1.3-3.1-1.9-4.4-1.2-2.9-1.5-3.5c-2-4.7-2.3-5.3-2.6-5.4.1.1 0 .2.1.5m2.8-.1c0 .1.7 1.6 1.5 3.4s1.9 4 2.4 4.9 1.2 2.5 1.6 3.4c1 2.1 3.9 8.3 5 10.5.8 1.6.8 1.7 1.3 1.7.7 0 .6 0-.9-3.1-.6-1.3-3.3-6.6-5.8-11.7-4.3-8.6-5.1-10.2-5.1-9.1m2.8-.1c0 .1 1.4 2.6 3.1 5.6s4.6 8.4 6.5 11.8c3.7 6.8 3.6 6.6 4.3 6.6s.8.4-1.9-4.3c-1.3-2.3-2.8-4.9-3.3-5.8-7.6-13.3-8.7-15-8.7-13.9m3.2.2a23.83 23.83 0 001.7 2.6c.8 1.3 2.7 4.3 4.3 6.7 3.5 5.6 4.2 6.7 4.8 7.6.3.4 1.3 2 2.2 3.5 2.1 3.3 2.1 3.4 2.8 3.3l.5-.1-1.4-2.1c-.8-1.1-2.1-3.2-2.9-4.5s-2.5-3.8-3.6-5.5-2.7-4.2-3.6-5.5C333.45.9 333 .2 332.55.1c-.4.1-.4.2-.2.5m3.1-.3c0 .1 2.2 3.2 9.2 12.8 2.8 3.9 5.8 8.1 6.6 9.2 1.4 2 1.5 2 2.1 2 .8 0 2.1 1.9-9.7-14.1-1.2-1.7-3.4-4.6-4.8-6.5-2.4-3.1-3.4-4.1-3.4-3.4m3.5.1c0 .1 9.2 11.4 15.5 19.2 1.5 1.8 2.8 3.6 3.1 4 .5 1 1.2 1.1 3 .3 1-.4 5.3-2.2 9-3.8 2-.8 5.7-2.4 6.9-2.9s4-1.7 10-4.2c2.1-.9 3.1-1.2 3.2-1.1a11.06 11.06 0 01.7 3.1 6.14 6.14 0 01-1.1.5c-1 .3-4 1.4-9.4 3.5-5 1.8-7.9 2.9-10.4 3.8-1.4.5-2.8 1.1-3.2 1.2l-.8.3 1.2-.1a19.82 19.82 0 004.7-1.3c1.9-.7 4-1.4 4.7-1.7s4.2-1.5 7.8-2.7c7.8-2.7 7-2.6 7.3-1.4.6 2.1.6 2.3-.2 2.5-1.2.3-13.1 4-14.6 4.5-.7.2-.7.2.7.2 1.2 0 1.8-.1 5.8-1.2 2.4-.7 4.8-1.4 5.3-1.5a18.33 18.33 0 002.3-.7c1.7-.5 1.6-.6 2 1.3.4 1.7.4 1.7-.5 1.9l-.7.2h1.2c1.4 0 1.4.1.9-1.9-.4-1.4-.8-3.1-1.3-5.7-.2-.8-.5-2.1-.7-2.8a65.29 65.29 0 01-1.6-7.4c0-.3 2.5-1.1 2.8-.9.1.1.4 1.8 2.9 15.2.6 3.2.7 3.4 1.1 3.4s.3-.1-.5-4.4c-.3-1.6-.7-3.9-.9-5.2s-.6-3.6-.9-5.2-.5-3.1-.6-3.5l-.1-.7.7-.2a7.27 7.27 0 012.3-.4c.1.1.6 3.8 2 14.8.6 4.5.6 4.7 1 4.8s.4-.2-.1-4.7c-.2-2-.6-5.3-.8-7.4s-.5-4.6-.7-5.7c-.3-2.2-.3-2.2.7-2.4q1.8-.3 1.8-.6c0-.2-.3-.1-1.3.1-.7.2-2.1.5-3 .7s-2.7.6-3.8.9c-2.3.5-4.1 1-9 2.1-1.8.4-3.7.9-4.2 1-1.1.3-7.2 1.7-9.9 2.3l-8.9 2.1c-1.2.3-3 .7-3.9.9s-2.3.5-3 .7l-1.2.3-.5-.6c-.3-.3-1-1.2-1.6-1.9s-1.7-2-2.5-2.9a5.37 5.37 0 01-1.2-1.7c.1-.1 3-.5 11.7-1.6 2.1-.3 5.2-.7 6.9-.9 9.3-1.2 15.8-2.1 23.3-3 6.5-.8 10.9-1.4 11.6-1.6l.8-.2h-.9a19.88 19.88 0 00-2.2.2c-1.6.2-7.1.9-11.7 1.4-2 .2-4.8.6-6.2.7-5.8.7-8 1-18.1 2.2-1.6.2-3.8.5-4.9.6-3 .4-9 1.1-10.2 1.2l-1 .1-1-1.2c-1.1-1.3-1.1-1.5.1-1.5.4 0 2.2-.1 4-.3s4.3-.4 5.6-.5 3.4-.3 4.8-.4 3.9-.4 5.6-.5c7.9-.7 19.3-1.7 20.2-1.8 1.2-.2-5.1-.1-7.4.1-1.5.1-3.8.3-5.1.4s-4.1.3-6.2.5-5.1.4-6.5.5-4.8.4-7.5.6-5.7.4-6.6.5-1.9.1-2.2.2c-.5.1-2.7-2.2-2.7-2.8 0-.1-.2-.2-.5-.2a3 3 0 00-1.2.3m-120.5 2.1c.4.1 1.7.5 2.9.8s3.7 1 5.6 1.5 4.4 1.2 5.6 1.5 2.8.8 3.6 1 2.4.7 3.7 1 2.9.8 3.7 1 1.8.5 2.3.6c1 .3 14.8 4 17.6 4.8a6.62 6.62 0 004.8 0c3.3-.9 9.3-2.6 10.8-3 .8-.2 2.4-.7 3.7-1s2.9-.8 3.7-1c1.5-.4 4.1-1.1 8.8-2.4 1.7-.5 4-1.1 5.2-1.4s2.8-.8 3.7-1 2.6-.7 3.8-1 2.8-.8 3.6-1 2.2-.6 3.1-.8c2-.6 1.9-.6 2.3 1s.6 1.4-2.7 2.2c-1.5.3-3.7.8-4.8 1.1s-3.1.7-4.4 1-3.3.7-4.5 1-2.8.6-3.5.8-1.8.4-2.3.5l-1.9.4c-.9.2-7.6 1.8-12.9 2.9l-4 .9-5.7 1.3-4 .9-2.2-.5c-5.8-1.3-7.4-1.7-9.8-2.2-1.4-.3-3.1-.7-3.8-.8-1-.2-5.7-1.3-10-2.3-.8-.2-2.3-.5-3.2-.7s-2.6-.6-3.6-.8c-3.9-.9-7.9-1.8-8.9-2-.6-.1-2.6-.6-4.4-1s-3.7-.8-4.2-.9-1-.2-1-.3a8.18 8.18 0 01.5-2.7c-.5-.3.5-.1 2.8.6m-2.1 3.5c2.1.4 2 .3 1.8 2.4v1.2l-2.1-1-2.1-1 .1-.8c.1-.8.2-1.1.4-1.1a6.89 6.89 0 011.9.3m101 .6a5.1 5.1 0 01.1.9 38.06 38.06 0 01-4.1 2 4.93 4.93 0 01.1-3.2c3.7-.8 3.7-.8 3.9.3m-269.3 0c.3 1 .3.9-2 2.1l-2 1L44 8.2c-.2-1.8-.3-1.6 1.9-2.1s2-.4 2.2.5m96.6.5c.3.2.3.4.3 2.5v2.3l-.5-.2c-2.7-1-2.6-.8-1.9-3.6l.4-1.4.7.1a6.21 6.21 0 011 .3M389 8.7a5.15 5.15 0 01.3 2.1c-.2.1-2.5 1.2-2.7 1.2a16.06 16.06 0 010-2.4V7.2l.7-.2c1.2-.4 1.2-.4 1.7 1.7M119.25 7.4c.1.3.3 1.1.5 1.9l.4 1.5-.6.3c-.4.2-1 .5-1.5.7l-.9.3v-1.3c0-2.8.2-3.5.7-3.7 1-.3 1.3-.2 1.4.3m28.6.4l1.6.4v2.7c0 1.5-.1 2.7-.1 2.8a14.81 14.81 0 01-3.1-1.3 21.11 21.11 0 01-.1-5s.8.2 1.7.4m237.6 2.3v2.4l-1.5.7c-1.9.8-1.7 1-1.8-2.2l-.1-2.7.5-.1c.3-.1 1-.2 1.6-.4 1.4-.4 1.4-.5 1.3 2.3m-269.3 0v2.5l-1.3.6c-2.2 1-2 1-2.1-.7a26.23 26.23 0 01-.1-2.7V8.4l.6-.2c.7-.2 2.6-.6 2.8-.7 0 .1.1 1.2.1 2.6m36.4-1.1c1.8.4 1.6.1 1.3 3.4-.4 3.5-.2 3.3-2 2.6l-1.5-.7v-1.8c.1-3.3.2-3.9.6-3.8s1 .2 1.6.3m63.5.8l2.1 1-.1 1.7c-.1 2-.1 1.9-.8 1.6-.9-.4-3.2-1.4-3.8-1.7l-.6-.2.4-1.7.4-1.8h.1s1.1.5 2.3 1.1m164.8-.4c.1.4.1 1.7.2 2.9l.1 2.1-1.5.6c-1 .4-1.6.6-1.6.5s-.7-5.8-.6-5.9 3-.8 3.3-.9a1.73 1.73 0 01.1.7M49 10.5a4.74 4.74 0 01.2 1.8 48 48 0 01-4.9 2.1s-.1-.8-.2-1.7L44 11l2.2-1.1c1.2-.6 2.3-1.1 2.3-1.1a4.69 4.69 0 01.5 1.7m62.6-1.4c0 .2.1 1.4.1 2.9l.1 2.6-1.5.7a6.67 6.67 0 01-1.6.6c-.1-.1-.8-6-.7-6.1a29.88 29.88 0 013.2-.9c.2-.1.3 0 .4.2m206.7 1.3a4.28 4.28 0 01.2 1.7s-1.2.6-2.5 1.1l-2.4 1.1-.1-1.7c-.1-1-.1-1.8-.1-1.8a42.5 42.5 0 014.3-2.1c.2.1.3.4.6 1.7m-161.2-.3a7.48 7.48 0 011.6.5c.1.2-.9 6.6-1 6.7a7.3 7.3 0 01-3-1.6 46.43 46.43 0 01.8-6 8.13 8.13 0 001.6.4m219.5 2.5c.2 1.6.3 3 .3 3.2a7.3 7.3 0 01-3 1.6c-.1-.1-1.1-6.6-1-6.7a24.48 24.48 0 013.2-.9 10.84 10.84 0 01.5 2.8m-269.2.4c.2 1.7.3 3.1.3 3.2a9.43 9.43 0 01-3 1.2 38.74 38.74 0 01-1-6.7 19.84 19.84 0 013.1-.8c.1 0 .2.5.6 3.1m54.4-1.7a3.59 3.59 0 011.4.5 11.63 11.63 0 01-.3 1.6c-.2.8-.5 2.4-.8 3.5-.5 2.4-.4 2.3-1.9 1.7s-1.7-.7-1.6-1c0-.1.3-1.6.6-3.2s.5-3.1.6-3.2c.1-.3.4-.3 2 .1m210.5 2.8c.7 4 .8 3.8-.8 4.4l-1.4.6c-.1 0-.2-.6-.4-1.3s-.5-2.3-.8-3.6c-.6-2.7-.7-2.4 1-2.9 2-.6 1.8-.8 2.4 2.8m-269.6-1.4c1.1 6 1.2 5.3-.7 6.1-1.5.6-1.4.7-1.8-1.1-.2-.8-.5-2.4-.8-3.5-.5-2.4-.6-2.2 1-2.6 2-.6 2-.7 2.3 1.1m63.6-.3c.7.2 1.3.4 1.4.4s-2.1 7.8-2.2 7.9a15.11 15.11 0 01-2.9-1.3 3.93 3.93 0 01.2-.6 33.57 33.57 0 00.8-3.5c.9-3.7.8-3.5 1.1-3.3a11.2 11.2 0 001.6.4M368.15 16a15.63 15.63 0 01.7 3.6c-.2.1-2.5 1.2-2.7 1.2a6 6 0 01-.7-1.8c-1.5-5.2-1.7-6.1-1.7-6.1s.8-.2 1.6-.5c2-.5 1.7-.9 2.8 3.6m-269.7-1.5c.6 2.3 1.2 5.1 1.2 5.2a14.76 14.76 0 01-2.9 1.2s-.6-1.8-1.2-4c-1.1-4.1-1.2-4.1-.4-4.2a5.82 5.82 0 001.4-.3c1.4-.3 1.3-.5 1.9 2.1m72.2-1a3.59 3.59 0 011.4.5c0 .3-2.7 7.9-2.9 8.2a6.93 6.93 0 01-2.7-1c-.1-.1.3-1.5 1.4-4.9.3-1.1.7-2.3.8-2.6s.2-.6.4-.6a11.2 11.2 0 001.6.4m192.5 1.1c2.2 7.1 2.2 6.6.6 7.3a8.11 8.11 0 01-1.4.5c-.2-.2-2.9-8.2-2.9-8.3a9.54 9.54 0 013-.9c.2 0 .5.6.7 1.4M94 15.1c.3 1 .8 2.6 1.1 3.5.8 2.7.8 2.8.4 3a11.82 11.82 0 00-1.3.6c-1.2.5-.9.8-2.3-3.1-1.5-4.2-1.7-5-1.6-5s2.8-.7 3.1-.8c0 0 .3.8.6 1.8m121.4-.8l2.6 1.1V17c0 .9-.1 1.6-.1 1.7a31.69 31.69 0 01-5.7-1.9 9.89 9.89 0 01.6-3.5s1.2.4 2.6 1m103.8.6a11.9 11.9 0 01.3 1.7c0 .2-.4.4-1.4.8-.8.3-2.1.8-2.9 1s-1.4.5-1.4.5-.1-.8-.2-1.7l-.1-1.7 1.9-.8c1-.4 2.2-.9 2.6-1.1.9-.4.9-.4 1.2 1.3m-269.3 0a8.51 8.51 0 00.4 1.7c.1.4.3.3-3.9 1.9-2.1.8-1.9.8-2-1.2l-.2-1.7 2.5-1.1c3.1-1.3 2.8-1.3 3.2.4m125.8-.1c.8.2.8.2-.3 2.8-.5 1.2-1.1 2.7-1.4 3.4a7.56 7.56 0 01-1.2 2l-.6.7-.9-.3c-1.3-.4-1.3-.5-.9-1.5.2-.4.6-1.6.9-2.5s.8-2.1 1-2.7.5-1.3.7-1.8l.3-.8 1 .2a12.13 12.13 0 001.4.5m182.8-.2c.1.2.5 1.4 1 2.7s1.1 3 1.4 3.8c.6 1.7.6 1.7-.7 2.2l-.9.3-.7-.8a11.1 11.1 0 01-1.4-2.5c-2.6-6.1-2.5-5.4-.7-5.8s1.8-.3 2 .1M90 16.8c.5 1.3 1.2 3.2 1.5 4.3a6.28 6.28 0 01.6 1.9s-.5.2-1.1.5l-1 .4-.6-.7c-.7-.8-1-1.5-2-3.9-.4-1.1-1-2.3-1.2-2.8-.5-1.2-.5-1.3.2-1.5 3-.8 2.6-1 3.6 1.8m168.1-2c1.1.2 3.2.7 4.7 1 3.3.7 2.6.7 6 0 7.9-1.7 7.7-1.7 5.6-.5-1.8 1-5.9 3.4-7.2 4.2-1.6 1-.6 1.4-8.2-3.1-3.9-2.2-3.8-2.2-.9-1.6m-79.3.8c.1.1-.5.9-1.2 1.7-1.6 1.9-1.7 1.9-.9.2.3-.7.7-1.5.8-1.8 0-.5.8-.5 1.3-.1m176.1 1.6c.9 2.1.9 2.1-.7.2s-1.6-1.8-.9-2 .7 0 1.6 1.8m-269.8-.8a14.18 14.18 0 011 2.6 31.48 31.48 0 01-2.7-3.1c-.1-.2.5-.4 1.1-.5.1 0 .4.5.6 1m173.2.6c3.2 1.8 5.6 3.2 6.7 3.9l.7.4 5.2-3c2.8-1.6 5.2-3 5.3-3a13.5 13.5 0 011.5 2.6c-.1.1-2.8 1.5-8.4 4.3l-3.5 1.8-1.9-.9c-11.6-5.9-10.3-5-9.4-6.5s.4-1.5 3.8.4M215 19c2.2.8 2.8 1.1 2.8 1.3v1.6c0 1.6 0 1.5-1.9.9-.7-.2-2.1-.6-3-.9-1.1-.3-1.8-.6-1.8-.8a6.57 6.57 0 01.3-1.3c.1-.6.3-1.3.3-1.5 0-.5 0-.5 3.3.7m104.9-.8c.2.7.6 3.1.6 3.1s-1.1.4-2.3.8-2.7.8-3.2 1c-1.1.4-1.1.4-1.2-1.5l-.1-1.6 2.8-1c3.3-1.2 3.3-1.2 3.4-.8m-269 1.3c.5 2.1.6 1.9-1.7 2.6-1.1.3-2.5.8-3 .9-1.6.5-1.6.6-1.6-1.3v-1.6l2.9-1c3.3-1.2 3-1.2 3.4.4" fill-rule="evenodd" fill="url(#a)" data-name="Layer 2"/></svg>